<?xml version="1.0" standalone="no"?><!DOCTYPE svg PUBLIC "-//W3C//DTD SVG 1.1//EN" "http://www.w3.org/Graphics/SVG/1.1/DTD/svg11.dtd"><svg t="1589855830490" class="icon" viewBox="0 0 1024 1024" version="1.1" xmlns="http://www.w3.org/2000/svg" p-id="845" xmlns:xlink="http://www.w3.org/1999/xlink" width="64" height="64"><defs><style type="text/css"></style></defs><path d="M794.36355925 402.19841763L324.18456803 402.19841763l0-76.7330247c0-104.56184605 85.11660259-189.67844864 189.79488768-189.67844864 104.67828509 0 189.79488768 85.23304163 189.79488768 189.91132558 0 14.20550713 11.41098041 25.61648754 25.61648754 25.61648754s25.61648754-11.41098041 25.61648754-25.61648754c0-132.9728603-108.17144149-241.14430179-241.02786276-241.1443018-64.39053539 0-124.93859726 25.03429461-170.46608326 70.56178062-45.52748487 45.52748487-70.56178062 105.95910883-70.56178063 170.34964424L272.95159296 402.19841763l-54.02750179 0c-31.43841678 0-56.58915043 25.15073365-56.58915044 56.4727114l0 389.02130006c0 31.43841678 25.26717269 57.4042203 56.58915044 57.4042203l575.32303018 0c31.43841678 0 57.2877824-25.96580352 57.2877824-57.4042203L851.53490261 458.67113017C851.65134165 427.34915129 825.80197603 402.19841763 794.36355925 402.19841763zM800.41836544 848.27462315c0 3.14384157-2.56164864 5.70549021-5.70549021 5.7054902L219.27340715 853.98011335c-3.14384157 0-5.70549021-2.56164864-5.70549021-5.7054902L213.56791581 459.13688405c0-3.14384157 2.56164864-5.70549021 5.7054902-5.7054902l575.32303018 0c3.14384157 0 5.70549021 2.56164864 5.70549021 5.7054902L800.30192754 848.27462315zM502.33559723 534.93840099c-28.99320718 0-52.39736206 23.40415488-52.39736206 52.39736207 0 19.09592747 10.2465957 35.86308323 25.61648753 45.06173099L475.55472384 734.04837433c0 14.08906809 11.52741945 25.61648754 25.61648754 25.61648754s25.61648754-11.52741945 25.61648753-25.61648754l0-100.37005654c16.65071673-8.73289387 27.94525923-26.19868046 27.94525924-46.34255587C554.73295929 558.34255587 531.32880441 534.93840099 502.33559723 534.93840099z" p-id="846" fill="#666666"></path></svg>